<svg height="464pt" viewBox="0 0 464 464" width="464pt" xmlns="http://www.w3.org/2000/svg"><path d="m434.695312 243.9375c-6.632812-8.402344-14.222656-15.992188-22.625-22.625l-57.4375 57.441406c9.550782 5.183594 17.4375 13.070313 22.625 22.621094zm0 0"/><path d="m328 288c-22.054688 0-40 17.945312-40 40s17.945312 40 40 40 40-17.945312 40-40-17.945312-40-40-40zm0 64c-13.230469 0-24-10.769531-24-24s10.769531-24 24-24 24 10.769531 24 24-10.769531 24-24 24zm0 0"/><path d="m336 328c0 4.417969-3.582031 8-8 8s-8-3.582031-8-8 3.582031-8 8-8 8 3.582031 8 8zm0 0"/><path d="m48 0-48 48h48zm0 0"/><path d="m32 256v80h144.40625c-.132812-2.664062-.40625-5.296875-.40625-8 0-26.039062 6.601562-50.550781 18.183594-72zm0 0"/><path d="m278.753906 354.632812-57.441406 57.4375c6.632812 8.402344 14.222656 15.992188 22.625 22.625l57.4375-57.4375c-9.558594-5.195312-17.4375-13.074218-22.621094-22.625zm0 0"/><path d="m272 328c0-30.871094 25.128906-56 56-56 3.359375 0 6.632812.351562 9.832031.921875l60.871094-60.875c-20.632813-12.632813-44.792969-20.046875-70.703125-20.046875-74.992188 0-136 61.007812-136 136 0 25.910156 7.414062 50.070312 20.046875 70.703125l60.875-60.871094c-.570313-3.199219-.921875-6.472656-.921875-9.832031zm56-120v16c-4.945312 0-9.953125.351562-14.871094 1.054688l-2.25-15.839844c5.65625-.808594 11.425782-1.214844 17.121094-1.214844zm-104 120h-16c0-52.710938 35.246094-100.007812 85.71875-115.023438l4.5625 15.328126c-43.738281 13.015624-74.28125 54.007812-74.28125 99.695312zm0 0"/><path d="m383.078125 318.167969c.570313 3.199219.921875 6.472656.921875 9.832031 0 30.871094-25.128906 56-56 56-3.359375 0-6.632812-.351562-9.832031-.921875l-60.871094 60.875c20.632813 12.632813 44.792969 20.046875 70.703125 20.046875 74.992188 0 136-61.007812 136-136 0-25.910156-7.414062-50.070312-20.046875-70.703125zm0 0"/><path d="m16 352v-112h188.296875c23.160156-32.457031 58.695313-55.367188 99.703125-61.910156v-34.089844h-64v32l-104-56 104-56v32h64v-16h56v32l104-56-104-56v32h-56v-32h-240v16h192v16h-192v32h-64v304h181.519531c-1.429687-5.230469-2.566406-10.558594-3.429687-16zm0 0"/></svg>