<svg id="Capa_1" enable-background="new 0 0 510 510" height="512" viewBox="0 0 510 510" width="512" xmlns="http://www.w3.org/2000/svg"><g><circle cx="135" cy="367.5" r="37.5"/><circle cx="375" cy="367.5" r="37.5"/><path d="m135 435c-20.759 0-39.351-9.426-51.743-24.215-14.313 13.666-23.257 32.91-23.257 54.215v45h150v-45c0-21.305-8.944-40.549-23.257-54.215-12.391 14.789-30.984 24.215-51.743 24.215z"/><path d="m375 435c-20.759 0-39.351-9.426-51.743-24.215-14.313 13.666-23.257 32.91-23.257 54.215v45h150v-45c0-21.305-8.944-40.549-23.257-54.215-12.391 14.789-30.984 24.215-51.743 24.215z"/><path d="m478.379 163.837c9.054-38.244-20.472-74.515-59.446-73.829-7.296-50.822-51.124-90.008-103.933-90.008-34.395 0-66.4 17.02-85.858 44.568-47.995-31.423-114.485-10.111-134.068 45.639-40.41-3.395-72.867 33.871-63.453 73.63-19.555 13.911-31.621 36.681-31.621 61.163 0 41.355 33.645 75 75 75h112.919c17.154 0 32.577 9.531 40.249 24.875l26.832 53.667 26.832-53.666c7.673-15.345 23.096-24.876 40.25-24.876h112.918c41.355 0 75-33.645 75-75 0-24.482-12.066-47.252-31.621-61.163zm-253.379 61.163h-30v-30h30zm0-60h-30v-30h30zm105 60h-75v-30h75zm0-60h-75v-30h75z"/></g></svg>