<svg id="Capa_1" enable-background="new 0 0 512.016 512.016" height="512" viewBox="0 0 512.016 512.016" width="512" xmlns="http://www.w3.org/2000/svg"><g><path d="m138.094 165h140.665v34.992h-140.665z"/><path d="m368.924 286.934c.205 0 .407.007.612.008v-194.942h-323.985v309h196.544c6.753-64.016 61.054-114.066 126.829-114.066zm-260.83-151.934h200.665v94.992h-200.665zm106.664 221.073h-106.667v-30h106.667zm30.319-62.965h-136.986v-30h136.986z"/><path d="m242.452 431h-196.901v81h241.282c-23.794-20.06-40.176-48.643-44.381-81z"/><path d="m368.924 512.016c53.784 0 97.541-43.757 97.541-97.541s-43.757-97.541-97.541-97.541-97.541 43.757-97.541 97.541 43.757 97.541 97.541 97.541zm-47.121-116.372 32.207 31.846 62.452-57.182 20.259 22.127-83.506 76.457-52.505-51.916z"/><path d="m45.551 0h323.985v62h-323.985z"/></g></svg>