<?xml version="1.0" encoding="iso-8859-1"?>
<!-- Generator: Adobe Illustrator 19.0.0, SVG Export Plug-In . SVG Version: 6.00 Build 0)  -->
<svg version="1.1" id="Capa_1" xmlns="http://www.w3.org/2000/svg" xmlns:xlink="http://www.w3.org/1999/xlink" x="0px" y="0px"
	viewBox="0 0 480 480" style="enable-background:new 0 0 480 480;" xml:space="preserve">
<g>
	<g>
		<path stroke="#ccc" fill="#ccc" d="M296,0H8C3.582,0,0,3.582,0,8v208c0,4.418,3.582,8,8,8h288c4.418,0,8-3.582,8-8V8C304,3.582,300.418,0,296,0z M224,208H16
			v-16h208V208z M224,176H16V16h208V176z M288,208h-48v-16h48V208z M288,176h-48v-64h48V176z M288,32h-32v16h32v16h-32v16h32v16h-48
			V16h48V32z"/>
	</g>
</g>
<g>
	<g>
		<path d="M112,72c-13.255,0-24,10.745-24,24s10.745,24,24,24s24-10.745,24-24S125.255,72,112,72z M112,104c-4.418,0-8-3.582-8-8
			s3.582-8,8-8s8,3.582,8,8S116.418,104,112,104z"/>
	</g>
</g>
<g>
	<g>
		<rect x="32" y="32" width="16" height="16"/>
	</g>
</g>
<g>
	<g>
		<rect x="192" y="32" width="16" height="16"/>
	</g>
</g>
<g>
	<g>
		<rect x="32" y="144" width="16" height="16"/>
	</g>
</g>
<g>
	<g>
		<rect x="192" y="144" width="16" height="16"/>
	</g>
</g>
<g>
	<g>
		<rect x="256" y="128" width="16" height="32"/>
	</g>
</g>
<g>
	<g>
		<path d="M112,40c-30.928,0-56,25.072-56,56c0,30.928,25.072,56,56,56c30.928,0,56-25.072,56-56
			C167.96,65.089,142.911,40.04,112,40z M112,136c-22.091,0-40-17.909-40-40s17.909-40,40-40s40,17.909,40,40
			C151.974,118.08,134.08,135.974,112,136z"/>
	</g>
</g>
<g>
	<g>
		<path d="M472,256H184c-4.418,0-8,3.582-8,8v208c0,4.418,3.582,8,8,8h288c4.418,0,8-3.582,8-8V264C480,259.582,476.418,256,472,256
			z M240,464h-48v-16h48V464z M240,432h-48v-16h32v-16h-32v-16h32v-16h-32v-16h48V432z M240,336h-48v-64h48V336z M464,464H256v-16
			h208V464z M464,432H256V272h208V432z"/>
	</g>
</g>
<g>
	<g>
		<path d="M368,328c-13.255,0-24,10.745-24,24s10.745,24,24,24s24-10.745,24-24S381.255,328,368,328z M368,360c-4.418,0-8-3.582-8-8
			s3.582-8,8-8s8,3.582,8,8S372.418,360,368,360z"/>
	</g>
</g>
<g>
	<g>
		<rect x="432" y="288" width="16" height="16"/>
	</g>
</g>
<g>
	<g>
		<rect x="272" y="288" width="16" height="16"/>
	</g>
</g>
<g>
	<g>
		<rect x="432" y="400" width="16" height="16"/>
	</g>
</g>
<g>
	<g>
		<rect x="272" y="400" width="16" height="16"/>
	</g>
</g>
<g>
	<g>
		<rect x="208" y="288" width="16" height="32"/>
	</g>
</g>
<g>
	<g>
		<path d="M368,296c-30.928,0-56,25.072-56,56c0.04,30.911,25.089,55.96,56,56c30.928,0,56-25.072,56-56
			C424,321.072,398.928,296,368,296z M368,392c-22.091,0-40-17.909-40-40c0.026-22.08,17.92-39.974,40-40c22.091,0,40,17.909,40,40
			C408,374.091,390.091,392,368,392z"/>
	</g>
</g>
<g>
	<g>
		<path d="M104,400c-17.673,0-32-14.327-32-32V267.312l18.344,18.344l11.312-11.312l-32-32c-3.124-3.123-8.188-3.123-11.312,0
			l-32,32l11.312,11.312L56,267.312V368c0.026,26.499,21.501,47.974,48,48h24v-16H104z"/>
	</g>
</g>
<g>
	<g>
		<rect x="144" y="400" width="16" height="16"/>
	</g>
</g>
<g>
	<g>
		<path d="M442.344,194.344L424,212.688V112c-0.026-26.499-21.501-47.974-48-48h-24v16h24c17.673,0,32,14.327,32,32v100.688
			l-18.344-18.344l-11.312,11.312l32,32c3.124,3.123,8.188,3.123,11.312,0l32-32L442.344,194.344z"/>
	</g>
</g>
<g>
	<g>
		<rect x="320" y="64" width="16" height="16"/>
	</g>
</g>
<g>
</g>
<g>
</g>
<g>
</g>
<g>
</g>
<g>
</g>
<g>
</g>
<g>
</g>
<g>
</g>
<g>
</g>
<g>
</g>
<g>
</g>
<g>
</g>
<g>
</g>
<g>
</g>
<g>
</g>
</svg>
