<svg height="512" viewBox="0 0 60 60" width="512" xmlns="http://www.w3.org/2000/svg"><g id="Page-1" fill="none" fill-rule="evenodd"><g id="071---AB-Testing" fill-rule="nonzero" transform="translate(-1)"><path id="Shape" d="m60 43v3.82c.0452102 1.152631-.8477494 2.1259569-2 2.18h-54c-1.15225064-.0540431-2.04521019-1.027369-2-2.18v-3.82z" fill="#02a9f4"/><path id="Shape" d="m57 43v3.82c.0452102 1.152631-.8477494 2.1259569-2 2.18h3c1.1522506-.0540431 2.0452102-1.027369 2-2.18v-3.82z" fill="#0377bc"/><path id="Shape" d="m31 1v5h-29v-2.82c-.04521019-1.152631.84774936-2.12595691 2-2.18z" fill="#0377bc"/><path id="Shape" d="m60 3.18v2.82h-29v-5h27c1.1522506.05404309 2.0452102 1.027369 2 2.18z" fill="#02a9f4"/><path id="Shape" d="m58 1h-3c1.1522506.05404309 2.0452102 1.027369 2 2.18v2.82h3v-2.82c.0452102-1.152631-.8477494-2.12595691-2-2.18z" fill="#0377bc"/><path id="Rectangle-path" d="m31 6h29v24h-29z" fill="#f5f5f5"/><path id="Rectangle-path" d="m57 6h3v24h-3z" fill="#cfd8dc"/><path id="Rectangle-path" d="m2 6h29v24h-29z" fill="#cfd8dc"/><path id="Rectangle-path" d="m2 30h29v13h-29z" fill="#7f8e94"/><path id="Rectangle-path" d="m31 30h29v13h-29z" fill="#9e9e9e"/><path id="Rectangle-path" d="m57 30h3v13h-3z" fill="#707070"/><path id="Shape" d="m39 49 3 6h-11-11l3-6z" fill="#3f51b5"/><path id="Shape" d="m39 49h-3l3 6h3z" fill="#283593"/><rect id="Rectangle-path" fill="#02a9f4" height="4" rx="2" width="34" x="14" y="55"/><path id="Shape" d="m46 55h-3c1.1045695 0 2 .8954305 2 2s-.8954305 2-2 2h3c1.1045695 0 2-.8954305 2-2s-.8954305-2-2-2z" fill="#0377bc"/><circle id="Oval" cx="46" cy="18" fill="#ffdc00" r="8"/><path id="Shape" d="m46 10c-.5034323.0013583-1.005629.049904-1.5.145 3.7641632.7265899 6.4837629 4.0213519 6.4837629 7.855s-2.7195997 7.1284101-6.4837629 7.855c2.9873733.5766142 6.0432406-.5912461 7.8846263-3.0132663s2.1495108-5.6789024.795012-8.4032768-4.1371319-4.44459998-7.1796383-4.4384569z" fill="#fec108"/><circle id="Oval" cx="17" cy="18" fill="#9d27b0" r="8"/><path id="Shape" d="m17 10c-.5034323.0013583-1.005629.049904-1.5.145 3.7641632.7265899 6.4837629 4.0213519 6.4837629 7.855s-2.7195997 7.1284101-6.4837629 7.855c2.9873733.5766142 6.0432406-.5912461 7.8846263-3.0132663s2.1495108-5.6789024.795012-8.4032768-4.1371319-4.44459998-7.1796383-4.4384569z" fill="#6a1b9a"/><rect id="Rectangle-path" fill="#e91e63" height="4" rx="2" width="12" x="11" y="34"/><path id="Shape" d="m21 34h-3c1.1045695 0 2 .8954305 2 2s-.8954305 2-2 2h3c1.1045695 0 2-.8954305 2-2s-.8954305-2-2-2z" fill="#ad1457"/><rect id="Rectangle-path" fill="#a4c400" height="4" rx="2" width="12" x="40" y="34"/><path id="Shape" d="m50 34h-3c1.1045695 0 2 .8954305 2 2s-.8954305 2-2 2h3c1.1045695 0 2-.8954305 2-2s-.8954305-2-2-2z" fill="#90ac00"/><g fill="#000"><path id="Shape" d="m58 0h-54c-1.70524172.05441563-3.04599736 1.47651044-3 3.182v43.636c-.04599736 1.7054896 1.29475828 3.1275844 3 3.182h17.382l-2 4h-3.382c-1.6568542 0-3 1.3431458-3 3s1.3431458 3 3 3h30c1.6568542 0 3-1.3431458 3-3s-1.3431458-3-3-3h-3.382l-2-4h17.382c1.7052417-.0544156 3.0459974-1.4765104 3-3.182v-43.636c.0459974-1.70548956-1.2947583-3.12758437-3-3.182zm-55 7h27v22h-27zm29 0h27v22h-27zm27 24v11h-27v-11zm0-27.818v1.818h-27v-3h26c.5966179.06161524 1.038076.58341866 1 1.182zm-55-1.182h26v3h-27v-1.818c-.03807599-.59858134.40338206-1.12038476 1-1.182zm43 55c0 .5522847-.4477153 1-1 1h-30c-.5522847 0-1-.4477153-1-1s.4477153-1 1-1h30c.5522847 0 1 .4477153 1 1zm-6.618-3h-18.764l2-4h14.764zm17.618-6h-54c-.59661794-.0616152-1.03807599-.5834187-1-1.182v-2.818h4c.55228475 0 1-.4477153 1-1s-.44771525-1-1-1h-4v-11h27v11h-19c-.5522847 0-1 .4477153-1 1s.4477153 1 1 1h48v2.818c.038076.5985813-.4033821 1.1203848-1 1.182z"/><path id="Shape" d="m48.6 17.466c.2595432-.4451515.3974875-.9507174.4-1.466 0-1.6568542-1.3431458-3-3-3h-1.5c-.8284271 0-1.5.6715729-1.5 1.5v7c0 .8284271.6715729 1.5 1.5 1.5h2.5c1.6478483-.0215432 2.9784568-1.3521517 3-3-.0012747-1.0288501-.5296892-1.9852803-1.4-2.534zm-2.6-2.466c.5522847 0 1 .4477153 1 1-.0205331.5435526-.4564474.9794669-1 1h-1v-2zm1 6h-2v-2h2c.5522847 0 1 .4477153 1 1-.026603.5408824-.4591176.973397-1 1z"/><path id="Shape" d="m46 9c-4.9705627 0-9 4.0294373-9 9s4.0294373 9 9 9 9-4.0294373 9-9c-.0055111-4.9682782-4.0317218-8.99448887-9-9zm0 16c-3.8659932 0-7-3.1340068-7-7s3.1340068-7 7-7 7 3.1340068 7 7c-.0044086 3.8641657-3.1358343 6.9955914-7 7z"/><path id="Shape" d="m17 9c-4.9705627 0-9 4.0294373-9 9s4.0294373 9 9 9 9-4.0294373 9-9c-.0055111-4.9682782-4.0317218-8.99448887-9-9zm0 16c-3.8659932 0-7-3.1340068-7-7s3.1340068-7 7-7 7 3.1340068 7 7c-.0044086 3.8641657-3.1358343 6.9955914-7 7z"/><path id="Shape" d="m18.9 14.391c-.2612339-.829474-1.030362-1.3936155-1.9-1.3936155s-1.6387661.5641415-1.9 1.3936155l-2.052 6.3c-.1475676.5170805.1401931 1.0582834.65139 1.225095.511197.1668117 1.0627879-.1004975 1.24861-.605095l.428-1.311h3.247l.426 1.31c.1342121.4116142.5180576.6901141.951.69.1052514-.0001295.2098397-.0166612.31-.049.2522608-.0821602.4615341-.261196.5817542-.4976975.12022-.2365016.1415324-.5110828.0592458-.7633025zm-2.874 3.609.974-2.99.972 2.99z"/><path id="Shape" d="m13 39h8c1.6568542 0 3-1.3431458 3-3s-1.3431458-3-3-3h-8c-1.6568542 0-3 1.3431458-3 3s1.3431458 3 3 3zm0-4h8c.5522847 0 1 .4477153 1 1s-.4477153 1-1 1h-8c-.5522847 0-1-.4477153-1-1s.4477153-1 1-1z"/><path id="Shape" d="m42 39h8c1.6568542 0 3-1.3431458 3-3s-1.3431458-3-3-3h-8c-1.6568542 0-3 1.3431458-3 3s1.3431458 3 3 3zm0-4h8c.5522847 0 1 .4477153 1 1s-.4477153 1-1 1h-8c-.5522847 0-1-.4477153-1-1s.4477153-1 1-1z"/></g></g></g></svg>