<?xml version="1.0" encoding="iso-8859-1"?>
<!-- Generator: Adobe Illustrator 19.0.0, SVG Export Plug-In . SVG Version: 6.00 Build 0)  -->
<svg version="1.1" id="Capa_1" xmlns="http://www.w3.org/2000/svg" xmlns:xlink="http://www.w3.org/1999/xlink" x="0px" y="0px"
	viewBox="0 0 480 480" style="enable-background:new 0 0 480 480;" xml:space="preserve">
<g>
	<g>
		<g>
			<path d="M224,296V8c0-4.418-3.582-8-8-8H8C3.582,0,0,3.582,0,8v288c0,4.418,3.582,8,8,8h208C220.418,304,224,300.418,224,296z
				M208,288H16v-32h192V288z M208,184h-28.688L168.2,172.888c24.892-31.14,19.828-76.563-11.312-101.455
				S80.325,51.605,55.433,82.745c-24.892,31.14-19.828,76.563,11.312,101.455c26.355,21.067,63.788,21.067,90.143,0l13.456,13.456
				c1.5,1.5,3.534,2.344,5.656,2.344h32v40H16V16h192V184z M106.344,133.656l39.128,39.144
				c-24.861,18.605-60.097,13.533-78.702-11.328c-18.605-24.861-13.533-60.097,11.328-78.702
				c24.861-18.605,60.097-13.533,78.702,11.328c14.946,19.971,14.946,47.402,0,67.374l-39.144-39.128
				c-3.178-3.069-8.243-2.981-11.312,0.197C103.35,125.641,103.35,130.556,106.344,133.656z"/>
			<rect x="184" y="216" width="16" height="16"/>
			<rect x="24" y="216" width="16" height="16"/>
			<rect x="24" y="24" width="16" height="16"/>
			<rect x="184" y="24" width="16" height="16"/>
			<rect x="64" y="264" width="16" height="16"/>
			<rect x="32" y="264" width="16" height="16"/>
			<path d="M120,96c0-4.418-3.582-8-8-8c-22.08,0.026-39.974,17.92-40,40c0,4.418,3.582,8,8,8s8-3.582,8-8c0-13.255,10.745-24,24-24
				C116.418,104,120,100.418,120,96z"/>
			<rect x="96" y="264" width="96" height="16"/>
			<path d="M472,176H264c-4.418,0-8,3.582-8,8v288c0,4.418,3.582,8,8,8h208c4.418,0,8-3.582,8-8V184
				C480,179.582,476.418,176,472,176z M464,464H272v-32h192V464z M464,360h-28.688L424.2,348.888
				c24.892-31.14,19.828-76.563-11.312-101.455s-76.563-19.828-101.455,11.312c-24.892,31.14-19.828,76.563,11.312,101.455
				c26.355,21.067,63.788,21.067,90.143,0l13.456,13.456c1.5,1.5,3.534,2.344,5.656,2.344h32v40H272V192h192V360z M362.344,309.656
				l39.128,39.144c-24.861,18.605-60.097,13.533-78.702-11.328c-18.605-24.861-13.533-60.097,11.328-78.702
				s60.097-13.533,78.702,11.328c14.946,19.971,14.946,47.402,0,67.374l-39.144-39.128c-3.178-3.07-8.242-2.982-11.312,0.196
				C359.349,301.64,359.349,306.556,362.344,309.656z"/>
			<rect x="440" y="392" width="16" height="16"/>
			<rect x="280" y="392" width="16" height="16"/>
			<rect x="280" y="200" width="16" height="16"/>
			<rect x="440" y="200" width="16" height="16"/>
			<rect x="320" y="440" width="16" height="16"/>
			<rect x="288" y="440" width="16" height="16"/>
			<path d="M376,272c0-4.418-3.582-8-8-8c-22.08,0.026-39.974,17.92-40,40c0,4.418,3.582,8,8,8s8-3.582,8-8
				c0-13.255,10.745-24,24-24C372.418,280,376,276.418,376,272z"/>
			<rect x="352" y="440" width="96" height="16"/>
			<path d="M287.592,76.28L267.312,56H336c13.255,0,24,10.745,24,24v80h16V80c-0.026-22.08-17.92-39.974-40-40h-68.688l20.28-20.28
				L276.28,8.408L236.688,48l39.592,39.592L287.592,76.28z"/>
			<path d="M192.408,403.72l20.28,20.28H144c-13.255,0-24-10.745-24-24v-80h-16v80c0.026,22.08,17.92,39.974,40,40h68.688
				l-20.28,20.28l11.312,11.312L243.312,432l-39.592-39.592L192.408,403.72z"/>
		</g>
	</g>
</g>
<g>
</g>
<g>
</g>
<g>
</g>
<g>
</g>
<g>
</g>
<g>
</g>
<g>
</g>
<g>
</g>
<g>
</g>
<g>
</g>
<g>
</g>
<g>
</g>
<g>
</g>
<g>
</g>
<g>
</g>
</svg>
