<svg id="Capa_1" enable-background="new 0 0 511.999 511.999" height="512" viewBox="0 0 511.999 511.999" width="512" xmlns="http://www.w3.org/2000/svg"><g><path d="m255.999 485.353c4.143 0 7.5-3.357 7.5-7.5v-13.673c0-4.143-3.357-7.5-7.5-7.5s-7.5 3.357-7.5 7.5v13.673c0 4.142 3.357 7.5 7.5 7.5z"/><path d="m241.206 396.691c-4.143 0-7.5 3.357-7.5 7.5s3.357 7.5 7.5 7.5h29.586c4.143 0 7.5-3.357 7.5-7.5s-3.357-7.5-7.5-7.5z"/><path d="m307.067 87.144c0-22.142-18.014-40.155-40.155-40.155-16.919 0-31.417 10.523-37.321 25.363-2.242-2.474-5.945-3.232-9.036-1.605-3.667 1.926-5.079 6.46-3.152 10.127l8.66 16.487c.984 1.875 2.716 3.246 4.766 3.774 2.036.527 4.218.173 5.997-.996l14.563-9.583c3.46-2.277 4.419-6.928 2.143-10.389-2.185-3.319-6.552-4.327-9.958-2.395 3.725-9.241 12.779-15.783 23.338-15.783 13.871 0 25.155 11.284 25.155 25.155 0 4.143 3.357 7.5 7.5 7.5s7.5-3.358 7.5-7.5z"/><path d="m245.087 139.943c-13.871 0-25.155-11.284-25.155-25.155 0-4.143-3.357-7.5-7.5-7.5s-7.5 3.357-7.5 7.5c0 22.142 18.014 40.155 40.155 40.155 16.919 0 31.418-10.524 37.321-25.365 1.435 1.584 3.463 2.469 5.553 2.469 1.176 0 2.369-.277 3.481-.862 3.667-1.926 5.078-6.46 3.152-10.127l-8.659-16.487c-.984-1.874-2.715-3.245-4.766-3.774-2.046-.53-4.227-.167-5.997.996l-14.563 9.583c-3.46 2.277-4.419 6.928-2.143 10.389 2.185 3.318 6.549 4.326 9.958 2.396-3.724 9.24-12.778 15.782-23.337 15.782z"/><path d="m435.209 109.171h-27.896c-3.479-16.43-12.293-31.419-25.344-42.562-15.642-13.354-35.825-19.812-56.151-18.152-4.2-8.733-9.832-16.64-16.792-23.563-2.937-2.92-7.686-2.91-10.606.028-2.921 2.937-2.908 7.685.028 10.606 6.889 6.854 12.199 14.867 15.783 23.82 1.302 3.251 4.681 5.17 8.139 4.62 17.9-2.838 36.074 2.278 49.859 14.049 13.824 11.802 21.753 28.952 21.753 47.052 0 34.165-27.824 61.863-61.864 61.863h-160.813c-29.361 0-53.289-23.899-53.289-53.287 0-13.958 5.394-27.497 15.778-37.815 10.05-9.986 23.417-15.472 37.677-15.472.134 0 .27.002.403.001 3.674 0 6.81-2.663 7.401-6.294 2.654-16.292 11.069-31.234 23.696-42.077 12.759-10.955 29.034-16.988 45.827-16.988 9.369 0 18.488 1.828 27.103 5.435 3.82 1.602 8.215-.2 9.814-4.021s-.201-8.215-4.021-9.814c-10.46-4.38-21.527-6.6-32.896-6.6-20.376 0-40.121 7.318-55.598 20.608-13.728 11.787-23.351 27.587-27.513 44.987-16.061 1.324-30.955 8.156-42.467 19.595-6.976 6.931-12.255 15.092-15.672 23.98h-30.758c-20.207 0-36.646 16.44-36.646 36.647v262.251c0 20.207 16.439 36.646 36.646 36.646h131.631c1.514 21.006-10.542 41.664-24.357 52.283h-31.013c-4.143 0-7.5 3.357-7.5 7.5s3.357 7.5 7.5 7.5h205.897c4.143 0 7.5-3.357 7.5-7.5s-3.357-7.5-7.5-7.5h-31.014c-13.815-10.62-25.872-31.278-24.357-52.283h68.084c4.143 0 7.5-3.357 7.5-7.5s-3.357-7.5-7.5-7.5h-294.871c-11.936 0-21.646-9.711-21.646-21.646v-29.401h401.712v29.401c0 11.936-9.711 21.646-21.647 21.646h-34.886c-4.143 0-7.5 3.357-7.5 7.5s3.357 7.5 7.5 7.5h34.886c20.207 0 36.647-16.439 36.647-36.646v-262.25c-.001-20.207-16.44-36.647-36.647-36.647zm-146.68 335.545c-1.107 19.614 6.777 38.481 18.087 52.283h-101.233c11.31-13.801 19.193-32.669 18.086-52.283zm-117.224-242.783h160.813c31.053 0 57.845-18.521 69.96-45.087h22.101v174.146h-336.36v-174.146h19.26c9.519 26.266 34.714 45.087 64.226 45.087zm-116.161 161.735v-217.85c0-11.937 9.711-21.647 21.646-21.647h26.889c-.431 3.115-.664 6.276-.664 9.475 0 2.777.186 5.509.51 8.2h-18.947c-6.483 0-11.759 5.275-11.759 11.759v180.629c0 6.483 5.275 11.759 11.759 11.759h342.843c6.483 0 11.759-5.275 11.759-11.759v-180.63c0-6.483-5.275-11.759-11.759-11.759h-20.305c1.305-5.837 1.923-11.646 1.854-17.675h26.239c11.936 0 21.646 9.711 21.646 21.647v217.85h-401.711z"/><path d="m194.234 308.067h123.53c10.906 0 19.779-8.873 19.779-19.779v-32.09c0-10.906-8.873-19.779-19.779-19.779h-78.728c-4.143 0-7.5 3.357-7.5 7.5s3.357 7.5 7.5 7.5h78.728c2.636 0 4.779 2.144 4.779 4.779v32.09c0 2.636-2.144 4.779-4.779 4.779h-123.53c-2.636 0-4.779-2.144-4.779-4.779v-32.09c0-2.636 2.144-4.779 4.779-4.779h14.815c4.143 0 7.5-3.357 7.5-7.5s-3.357-7.5-7.5-7.5h-14.815c-10.906 0-19.779 8.873-19.779 19.779v32.09c0 10.906 8.873 19.779 19.779 19.779z"/></g></svg>